<svg width="39" height="39" viewBox="0 0 39 39" fill="none" xmlns="http://www.w3.org/2000/svg">
<path d="M9.7502 17.0625V14.625H7.31272V17.0625H9.7502ZM7.31272 17.0625H4.87523V19.5H7.31272V17.0625ZM9.7502 19.5H7.31272V21.9375H9.7502V19.5ZM9.7502 21.9375V24.375H12.1877V21.9375H9.7502ZM12.1877 17.0625H9.7502V19.5H12.1877V17.0625ZM14.6252 17.0625V14.625H12.1877V17.0625H14.6252ZM12.1877 19.5V21.9375H14.6252V19.5H12.1877ZM14.6252 21.9375V24.375H17.0627V21.9375H14.6252ZM17.0627 19.5V17.0625H14.6252V19.5H17.0627ZM19.5001 17.0625V14.625H17.0627V17.0625H19.5001ZM17.0627 19.5V21.9375H19.5001V19.5H17.0627ZM19.5001 21.9375V24.375H21.9376V21.9375H19.5001ZM19.5001 17.0625V19.5H21.9376V17.0625H19.5001ZM24.3751 17.0625V14.625H21.9376V17.0625H24.3751ZM21.9376 19.5V21.9375H24.3751V19.5H21.9376ZM24.3751 19.5H26.8126V17.0625H24.3751V19.5ZM8.53146 31.6875C6.5117 31.6875 4.87523 33.324 4.87523 35.3438C4.87523 37.3635 6.5117 39 8.53146 39C10.5512 39 12.1877 37.3635 12.1877 35.3438C12.1877 33.324 10.5512 31.6875 8.53146 31.6875ZM8.53146 36.5625C8.20823 36.5625 7.89824 36.4341 7.66968 36.2055C7.44112 35.977 7.31272 35.667 7.31272 35.3438C7.31272 35.0205 7.44112 34.7105 7.66968 34.482C7.89824 34.2534 8.20823 34.125 8.53146 34.125C8.85469 34.125 9.16468 34.2534 9.39324 34.482C9.6218 34.7105 9.7502 35.0205 9.7502 35.3438C9.7502 35.667 9.6218 35.977 9.39324 36.2055C9.16468 36.4341 8.85469 36.5625 8.53146 36.5625ZM23.1564 31.6875C21.1366 31.6875 19.5001 33.324 19.5001 35.3438C19.5001 37.3635 21.1366 39 23.1564 39C25.1761 39 26.8126 37.3635 26.8126 35.3438C26.8126 33.324 25.1761 31.6875 23.1564 31.6875ZM23.1564 36.5625C22.8331 36.5625 22.5231 36.4341 22.2946 36.2055C22.066 35.977 21.9376 35.667 21.9376 35.3438C21.9376 35.0205 22.066 34.7105 22.2946 34.482C22.5231 34.2534 22.8331 34.125 23.1564 34.125C23.4796 34.125 23.7896 34.2534 24.0181 34.482C24.2467 34.7105 24.3751 35.0205 24.3751 35.3438C24.3751 35.667 24.2467 35.977 24.0181 36.2055C23.7896 36.4341 23.4796 36.5625 23.1564 36.5625ZM37.7813 0H33.211C32.9392 1.99261e-05 32.6752 0.0909349 32.461 0.25828C32.2469 0.425625 32.0948 0.659786 32.0291 0.923508L29.8226 9.75H2.43775C1.6867 9.75 0.978613 10.0964 0.51671 10.6878C0.0548069 11.2792 -0.109419 12.0507 0.0727833 12.7789L3.72901 27.4039C3.86105 27.9312 4.16548 28.3993 4.59397 28.7337C5.02245 29.0682 5.55041 29.2499 6.09398 29.25H25.5938C26.7126 29.25 27.6873 28.4883 27.9588 27.4039L34.1631 2.4375H37.7813C38.4549 2.4375 39 1.89241 39 1.21875C39 0.545086 38.4549 0 37.7813 0ZM28.6099 14.625H26.8126V17.0625H28.0066L27.4037 19.5H26.8126V21.8878L26.8004 21.9375H24.3751V24.375H26.1968L25.5938 26.8125H24.3751V24.375H21.9376V26.8125H19.5001V24.375H17.0627V26.8125H14.6252V24.375H12.1877V26.8125H9.7502V24.375H7.31272V26.8125H6.09398L5.4846 24.375H7.31272V21.9375H4.87523V19.5H4.26586L3.65649 17.0625H4.87523V14.625H3.04712L2.43775 12.1875H4.87523V14.625H7.31272V12.1875H9.7502V14.625H12.1877V12.1875H14.6252V14.625H17.0627V12.1875H19.5001V14.625H21.9376V12.1875H24.3751V14.625H26.8126V12.1875H29.2132L28.6099 14.625Z" fill="#F2F2F2"/>
</svg>
