<svg width="17" height="17" viewBox="0 0 17 17" fill="none" xmlns="http://www.w3.org/2000/svg">
<path fill-rule="evenodd" clip-rule="evenodd" d="M8.00186 6.35979L1.98189 0.33972C1.52847 -0.11324 0.793478 -0.11324 0.340062 0.33972C-0.113354 0.793535 -0.113354 1.5288 0.340062 1.98217L6.35992 8.00176L0.340062 14.0217C-0.113354 14.4755 -0.113354 15.2099 0.340062 15.6633C0.793478 16.1167 1.52847 16.1167 1.98189 15.6633L8.00186 9.64362L14.0218 15.6633C14.475 16.1167 15.2102 16.1167 15.6637 15.6633C16.1168 15.2099 16.1168 14.4755 15.6637 14.0217L9.6438 8.00176L15.6637 1.98217C16.1168 1.5288 16.1168 0.793535 15.6637 0.33972C15.2102 -0.11324 14.475 -0.11324 14.0218 0.33972L8.00186 6.35979Z" fill="#BDBDBD"/>
</svg>
