<svg width="9" height="9" viewBox="0 0 9 9" fill="none" xmlns="http://www.w3.org/2000/svg">
<path d="M8.03595 5.63653C7.90903 5.41463 7.76236 4.88672 7.66132 4.52306C7.37564 3.49531 6.93345 1.90884 5.60355 1.33924C5.61677 1.26949 5.625 1.19805 5.625 1.125C5.625 0.503719 5.12128 0 4.5 0C3.87872 0 3.375 0.503719 3.375 1.125C3.375 1.19805 3.38323 1.26949 3.39645 1.33924C2.06655 1.90891 1.62436 3.49531 1.33868 4.52306C1.23757 4.88672 1.09097 5.41463 0.964055 5.63653C0.419133 5.71451 0 6.18314 0 6.75C0 7.37128 0.503719 7.875 1.125 7.875H3.375C3.375 8.49628 3.87872 9 4.5 9C5.12128 9 5.625 8.49628 5.625 7.875H7.875C8.49628 7.875 9 7.37128 9 6.75C9 6.18314 8.58087 5.71451 8.03595 5.63653ZM7.875 7.3125H1.125C0.814641 7.3125 0.5625 7.06036 0.5625 6.75C0.5625 6.47206 0.76957 6.23257 1.04372 6.19355C1.12848 6.1813 1.20934 6.1499 1.28016 6.10174C1.35098 6.05358 1.4099 5.98993 1.45245 5.9156C1.60186 5.65411 1.73482 5.19877 1.88093 4.6736C2.14123 3.73648 2.53455 2.32031 3.61779 1.85611C3.73552 1.80578 3.83254 1.71676 3.89277 1.60378C3.95301 1.49079 3.97286 1.36063 3.94903 1.23483C3.94187 1.19864 3.93801 1.16188 3.9375 1.125C3.9375 0.814641 4.18964 0.5625 4.5 0.5625C4.81036 0.5625 5.0625 0.814641 5.0625 1.125C5.0625 1.15741 5.05863 1.19313 5.05097 1.2349C5.02714 1.3607 5.04699 1.49086 5.10723 1.60385C5.16746 1.71683 5.26448 1.80585 5.38221 1.85618C6.46545 2.32038 6.85877 3.73648 7.1197 4.67473C7.26525 5.19877 7.39821 5.65418 7.54763 5.9156C7.59014 5.98995 7.64905 6.05363 7.71988 6.1018C7.7907 6.14996 7.87158 6.18134 7.95635 6.19355C8.23043 6.23257 8.4375 6.47206 8.4375 6.75C8.4375 7.06036 8.18536 7.3125 7.875 7.3125Z" fill="#F2F2F2"/>
</svg>
