<svg width="19" height="19" viewBox="0 0 19 19" fill="none" xmlns="http://www.w3.org/2000/svg">
<circle cx="9.5" cy="9.5" r="9.5" fill="#F2F2F2"/>
<path d="M13.7415 11.2822C13.4499 10.9907 12.9619 10.7362 12.1927 10.3514C11.8049 10.1575 11.1595 9.83496 11.003 9.68723C11.6582 8.88185 12.0385 7.9722 12.0385 7.17593C12.0385 6.63562 12.0385 5.96324 11.7361 5.36357C11.4635 4.82349 10.8543 4.18005 9.50023 4.18005C8.1459 4.18005 7.53666 4.82349 7.26434 5.36349C6.96153 5.96324 6.96153 6.63554 6.96153 7.17585C6.96153 7.97243 7.34153 8.88185 7.99716 9.68715C7.84031 9.8352 7.19495 10.1578 6.80716 10.3513C6.03814 10.7361 5.55016 10.9905 5.25831 11.2822C4.61233 11.9286 4.56347 13.0132 4.56015 13.2242C4.55852 13.3334 4.5786 13.4418 4.61924 13.5431C4.65989 13.6445 4.72027 13.7367 4.79688 13.8145C4.95126 13.9713 5.16299 14.06 5.38312 14.06H13.6166C13.8374 14.06 14.0486 13.9714 14.2033 13.8145C14.2798 13.7366 14.3402 13.6443 14.3808 13.5429C14.4215 13.4415 14.4416 13.3331 14.44 13.2239C14.4367 13.0132 14.3874 11.9287 13.7415 11.2822ZM13.7635 13.381C13.7444 13.4005 13.7215 13.416 13.6963 13.4266C13.6711 13.4371 13.644 13.4426 13.6166 13.4426H5.38312C5.35589 13.4425 5.32893 13.437 5.30382 13.4265C5.27871 13.4159 5.25595 13.4005 5.23685 13.381C5.19835 13.3417 5.17698 13.2887 5.17742 13.2336C5.17919 13.1302 5.2076 12.2066 5.69496 11.7191C5.91996 11.4942 6.39096 11.2503 7.08341 10.9038C7.82256 10.5344 8.23242 10.3143 8.42122 10.1358L8.83796 9.7418L8.4761 9.29735C7.90615 8.59726 7.57895 7.82384 7.57895 7.17593C7.57895 6.6763 7.57895 6.11036 7.81538 5.64183C8.0985 5.0816 8.66483 4.79755 9.50023 4.79755C10.3349 4.79755 10.9019 5.0816 11.1848 5.64152C11.4212 6.11036 11.4212 6.6763 11.4212 7.17593C11.4212 7.82361 11.0943 8.59695 10.5237 9.29735L10.1618 9.74211L10.5786 10.1359C10.7673 10.3141 11.1769 10.5342 11.9164 10.9039C12.6088 11.25 13.0798 11.494 13.3048 11.7192C13.7014 12.1157 13.8169 12.8577 13.8223 13.2337C13.8227 13.2609 13.8177 13.288 13.8077 13.3132C13.7976 13.3385 13.7826 13.3616 13.7635 13.381Z" fill="#4F4F4F"/>
</svg>
