<svg width="17" height="17" viewBox="0 0 17 17" fill="none" xmlns="http://www.w3.org/2000/svg">
<path d="M15.9173 15.2393L11.9761 11.1236C12.8629 9.96786 13.345 8.53052 13.3428 7.04956C13.3428 3.44492 10.5447 0.522705 7.09279 0.522705C3.64104 0.522705 0.842773 3.44492 0.842773 7.04956C0.842773 10.6542 3.64104 13.5764 7.09279 13.5764C8.56848 13.5764 9.92474 13.0423 10.994 12.149L14.9352 16.2648C14.9996 16.3322 15.0761 16.3857 15.1603 16.4222C15.2446 16.4586 15.3349 16.4773 15.4261 16.4772C15.5635 16.4772 15.6977 16.4347 15.8119 16.355C15.9261 16.2754 16.0151 16.1621 16.0677 16.0296C16.1203 15.8971 16.1341 15.7513 16.1073 15.6106C16.0805 15.47 16.0144 15.3407 15.9173 15.2393ZM7.09279 12.126C4.40806 12.126 2.23166 9.85321 2.23166 7.04956C2.23166 4.24591 4.40806 1.97312 7.09279 1.97312C9.77769 1.97312 11.9539 4.24591 11.9539 7.04956C11.9539 9.85321 9.77769 12.126 7.09279 12.126Z" fill="#F2F2F2"/>
</svg>
