<svg width="11" height="9" viewBox="0 0 11 9" fill="none" xmlns="http://www.w3.org/2000/svg">
<path d="M11 7.52209V6.70358L10.5522 6.63007C10.5185 6.54332 10.4759 6.45925 10.4249 6.37881L10.6783 6.06771L9.971 5.48898L9.59095 5.69645C9.49245 5.65463 9.38971 5.61976 9.28368 5.59218L9.19384 5.22581H8.33871V3.46325C8.64391 3.39839 8.87097 3.17306 8.87097 2.90323V2.43868L7.98387 0.696746V0H0.887097V0.696746L0 2.43868V2.90323C0 3.17306 0.227059 3.39839 0.532258 3.46325V9H9.19384L9.2835 8.63363C9.38954 8.60619 9.49228 8.57118 9.59078 8.52936L9.97083 8.73683L10.6782 8.15809L10.4248 7.847C10.4759 7.76641 10.5183 7.68235 10.552 7.59574L11 7.52209ZM6.96232 6.37881C6.92377 6.43948 6.89189 6.50263 6.8633 6.56692C6.76922 6.35761 6.56166 6.19126 6.28721 6.12378L5.14516 5.84359V5.5829C5.36234 5.42335 5.5 5.19271 5.5 4.93548V4.5C5.5 4.01965 5.02258 3.62903 4.43548 3.62903C3.84839 3.62903 3.37097 4.01965 3.37097 4.5V4.93548C3.37097 5.19256 3.50862 5.42321 3.72581 5.5829V5.84359L2.58376 6.12392C2.2057 6.2167 1.95161 6.49611 1.95161 6.81925V7.54839H1.59677V3.46325C1.65386 3.47544 1.7126 3.48387 1.77419 3.48387C1.98713 3.48387 2.17625 3.4052 2.30645 3.28328C2.43666 3.4052 2.62577 3.48387 2.83871 3.48387C3.05165 3.48387 3.24076 3.4052 3.37097 3.28328C3.50117 3.4052 3.69029 3.48387 3.90323 3.48387C4.11616 3.48387 4.30528 3.4052 4.43548 3.28328C4.56569 3.4052 4.7548 3.48387 4.96774 3.48387C5.18068 3.48387 5.36979 3.4052 5.5 3.28328C5.63021 3.4052 5.81932 3.48387 6.03226 3.48387C6.2452 3.48387 6.43431 3.4052 6.56452 3.28328C6.69472 3.4052 6.88384 3.48387 7.09677 3.48387C7.15837 3.48387 7.2171 3.47544 7.27419 3.46325V5.60544L6.70893 6.06786L6.96232 6.37881ZM5.5 6.82258V7.54839H3.37097V6.82258H3.01613V7.54839H2.30645V6.81925C2.30645 6.62547 2.45883 6.45776 2.68581 6.40205L3.85281 6.11563L4.43548 6.59237L5.01833 6.11549L6.18516 6.40191C6.35496 6.44359 6.48291 6.54792 6.53662 6.67905L6.3871 6.70372V7.52223L6.5471 7.54839H5.85484V6.82258H5.5ZM4.43548 5.51613C4.04409 5.51613 3.72581 5.25572 3.72581 4.93548V4.5C3.72581 4.17977 4.04409 3.91936 4.43548 3.91936C4.82688 3.91936 5.14516 4.17977 5.14516 4.5V4.93548C5.14516 5.25572 4.82688 5.51613 4.43548 5.51613ZM4.43548 5.80645C4.56006 5.80645 4.67909 5.78788 4.79032 5.75563V5.89151L4.43548 6.18183L4.08065 5.89151V5.75563C4.19188 5.78788 4.31091 5.80645 4.43548 5.80645ZM1.7055 0.870968L1.11398 2.32258H0.443548L1.18285 0.870968H1.7055ZM7.68811 0.870968L8.42742 2.32258H7.75699L7.16547 0.870968H7.68811ZM7.45161 2.90323C7.45161 3.06334 7.29247 3.19355 7.09677 3.19355C6.90108 3.19355 6.74194 3.06334 6.74194 2.90323V2.6129H7.45161V2.90323ZM2.48387 2.6129H3.19355V2.90323C3.19355 3.06334 3.03441 3.19355 2.83871 3.19355C2.64301 3.19355 2.48387 3.06334 2.48387 2.90323V2.6129ZM3.54839 2.6129H4.25806V2.90323C4.25806 3.06334 4.09892 3.19355 3.90323 3.19355C3.70753 3.19355 3.54839 3.06334 3.54839 2.90323V2.6129ZM4.6129 2.6129H5.32258V2.90323C5.32258 3.06334 5.16344 3.19355 4.96774 3.19355C4.77204 3.19355 4.6129 3.06334 4.6129 2.90323V2.6129ZM5.67742 2.6129H6.3871V2.90323C6.3871 3.06334 6.22796 3.19355 6.03226 3.19355C5.83656 3.19355 5.67742 3.06334 5.67742 2.90323V2.6129ZM7.38291 2.32258H6.6981L6.25897 0.870968H6.79157L7.38291 2.32258ZM5.89374 0.870968L6.33728 2.32258H5.66321L5.51542 0.870968H5.89374ZM5.15937 0.870968L5.30768 2.32258H4.6129V0.870968H5.15937ZM4.25806 2.32258H3.56381L3.7116 0.870968H4.25806V2.32258ZM3.20828 2.32258H2.53368L2.97723 0.870968H3.35572L3.20828 2.32258ZM2.16793 2.32258H1.48805L2.07939 0.870968H2.61148L2.16793 2.32258ZM2.12903 2.6129V2.90323C2.12903 3.06334 1.96989 3.19355 1.77419 3.19355C1.5785 3.19355 1.41935 3.06334 1.41935 2.90323V2.6129H2.12903ZM7.62903 3.28328C7.72147 3.3699 7.8437 3.43348 7.98387 3.46325V5.62805C7.92002 5.64853 7.85722 5.67072 7.79632 5.69645L7.62903 5.60508V3.28328ZM8.16129 3.19355C7.96559 3.19355 7.80645 3.06334 7.80645 2.90323V2.6129H8.51613V2.90323C8.51613 3.06334 8.35699 3.19355 8.16129 3.19355ZM7.62903 0.290323V0.580645H1.24194V0.290323H7.62903ZM0.354839 2.90323V2.6129H1.06452V2.90323C1.06452 3.06334 0.905376 3.19355 0.709677 3.19355C0.513979 3.19355 0.354839 3.06334 0.354839 2.90323ZM0.887097 3.46325C1.02726 3.43348 1.1495 3.3699 1.24194 3.28328V7.83871H6.95747C6.95912 7.84148 6.9605 7.84424 6.96215 7.847L6.70876 8.15809L7.38335 8.70968H0.887097V3.46325ZM7.46599 8.70968L7.79632 8.52936C7.89481 8.57118 7.99756 8.60605 8.10359 8.63363L8.12222 8.70968H7.46599ZM10.2669 7.34603L10.2394 7.4347C10.2016 7.5564 10.1429 7.67236 10.065 7.77931L10.0077 7.85785L10.2218 8.12074L9.92569 8.36301L9.60456 8.18793L9.5084 8.23472C9.3775 8.29858 9.23577 8.34663 9.08702 8.37754L8.97882 8.40008L8.90293 8.70968H8.48416L8.40845 8.40022L8.30025 8.37768C8.1515 8.34663 8.00977 8.29872 7.87887 8.23486L7.78271 8.18815L7.46158 8.36315L7.16547 8.12088L7.37962 7.85799L7.32227 7.77946C7.24439 7.6725 7.18566 7.55654 7.14789 7.43484L7.12034 7.34617L6.74194 7.28436V6.94159L7.12016 6.87978L7.14771 6.79111C7.18548 6.66941 7.24422 6.55345 7.3221 6.4465L7.37936 6.36796L7.1653 6.10507L7.4614 5.8628L7.78254 6.03787L7.8787 5.99109C8.0096 5.92723 8.15133 5.87918 8.30007 5.84827L8.40827 5.82573L8.48416 5.51613H8.90293L8.97865 5.82559L9.08685 5.84813C9.2356 5.87918 9.37732 5.92709 9.50822 5.99095L9.60438 6.03766L9.92552 5.86266L10.2216 6.10493L10.0075 6.36782L10.0648 6.44635C10.1427 6.55331 10.2014 6.66927 10.2392 6.79097L10.2668 6.87964L10.6452 6.94145V7.28422L10.2669 7.34603Z" fill="#F2F2F2"/>
</svg>
